<svg width="130" height="130" viewBox="0 0 130 130" fill="none" xmlns="http://www.w3.org/2000/svg">
<g filter="url(#filter0_dd_9_131)">
<g filter="url(#filter1_d_9_131)">
<circle cx="65" cy="49" r="25" fill="#ECEDEF"/>
</g>
<path d="M57 47.451C57 43.9386 57 42.1823 58.0933 41.0912C59.1866 40 60.9462 40 64.4655 40H66.3319C69.8511 40 71.6108 40 72.704 41.0912C73.7973 42.1823 73.7973 43.9386 73.7973 47.451V51.1765C73.7973 54.6889 73.7973 56.4452 72.704 57.5363C71.6108 58.6275 69.8511 58.6275 66.3319 58.6275H64.4655C60.9462 58.6275 59.1866 58.6275 58.0933 57.5363C57 56.4452 57 54.6889 57 51.1765V47.451Z" fill="black"/>
<path fill-rule="evenodd" clip-rule="evenodd" d="M60.9661 49.3138C60.9661 48.928 61.2794 48.6152 61.666 48.6152H69.1314C69.518 48.6152 69.8313 48.928 69.8313 49.3138C69.8313 49.6995 69.518 50.0123 69.1314 50.0123H61.666C61.2794 50.0123 60.9661 49.6995 60.9661 49.3138Z" fill="#ECEDEF"/>
<path fill-rule="evenodd" clip-rule="evenodd" d="M60.9661 45.5882C60.9661 45.2024 61.2794 44.8896 61.666 44.8896H69.1314C69.518 44.8896 69.8313 45.2024 69.8313 45.5882C69.8313 45.974 69.518 46.2867 69.1314 46.2867H61.666C61.2794 46.2867 60.9661 45.974 60.9661 45.5882Z" fill="#ECEDEF"/>
<path fill-rule="evenodd" clip-rule="evenodd" d="M60.9661 53.0392C60.9661 52.6535 61.2794 52.3407 61.666 52.3407H66.3319C66.7184 52.3407 67.0318 52.6535 67.0318 53.0392C67.0318 53.425 66.7184 53.7378 66.3319 53.7378H61.666C61.2794 53.7378 60.9661 53.425 60.9661 53.0392Z" fill="#ECEDEF"/>
</g>
<defs>
<filter id="filter0_dd_9_131" x="36" y="21" width="58" height="58" filterUnits="userSpaceOnUse" color-interpolation-filters="sRGB">
<feFlood flood-opacity="0" result="BackgroundImageFix"/>
<feColorMatrix in="SourceAlpha" type="matrix" values="0 0 0 0 0 0 0 0 0 0 0 0 0 0 0 0 0 0 127 0" result="hardAlpha"/>
<feOffset dy="1"/>
<feGaussianBlur stdDeviation="2"/>
<feComposite in2="hardAlpha" operator="out"/>
<feColorMatrix type="matrix" values="0 0 0 0 0.0470588 0 0 0 0 0.0470588 0 0 0 0 0.0509804 0 0 0 0.05 0"/>
<feBlend mode="normal" in2="BackgroundImageFix" result="effect1_dropShadow_9_131"/>
<feColorMatrix in="SourceAlpha" type="matrix" values="0 0 0 0 0 0 0 0 0 0 0 0 0 0 0 0 0 0 127 0" result="hardAlpha"/>
<feOffset dy="1"/>
<feGaussianBlur stdDeviation="2"/>
<feComposite in2="hardAlpha" operator="out"/>
<feColorMatrix type="matrix" values="0 0 0 0 0.0470588 0 0 0 0 0.0470588 0 0 0 0 0.0509804 0 0 0 0.1 0"/>
<feBlend mode="normal" in2="effect1_dropShadow_9_131" result="effect2_dropShadow_9_131"/>
<feBlend mode="normal" in="SourceGraphic" in2="effect2_dropShadow_9_131" result="shape"/>
</filter>
<filter id="filter1_d_9_131" x="0" y="0" width="130" height="130" filterUnits="userSpaceOnUse" color-interpolation-filters="sRGB">
<feFlood flood-opacity="0" result="BackgroundImageFix"/>
<feColorMatrix in="SourceAlpha" type="matrix" values="0 0 0 0 0 0 0 0 0 0 0 0 0 0 0 0 0 0 127 0" result="hardAlpha"/>
<feOffset dy="16"/>
<feGaussianBlur stdDeviation="20"/>
<feColorMatrix type="matrix" values="0 0 0 0 0.146118 0 0 0 0 0.172389 0 0 0 0 0.441667 0 0 0 0.1 0"/>
<feBlend mode="normal" in2="BackgroundImageFix" result="effect1_dropShadow_9_131"/>
<feBlend mode="normal" in="SourceGraphic" in2="effect1_dropShadow_9_131" result="shape"/>
</filter>
</defs>
</svg>
